<?xml version="1.0" encoding="UTF-8"?>
<svg width="257px" height="231px" viewBox="0 0 257 231" version="1.1" xmlns="http://www.w3.org/2000/svg" xmlns:xlink="http://www.w3.org/1999/xlink">
    <title>未命名</title>
    <g id="页面-1" stroke="none" stroke-width="1" fill="none" fill-rule="evenodd">
        <g id="svgexport-7" transform="translate(0.999886, 0.781000)" fill-rule="nonzero">
            <g id="XMLID_1829_" transform="translate(5.000944, 5.001888)">
                <g id="XMLID_1757_" transform="translate(186.190551, 191.566505)" fill="#89DF8F">
                    <path d="M0,8.00142035 L0,0 L8.00142035,0 C19.3254305,0 28.50506,9.1796295 28.50506,20.5036397 L28.50506,28.50506 L20.5036397,28.50506 C9.18012959,28.50506 0,19.3254305 0,8.00142035 Z" id="XMLID_850_"></path>
                </g>
                <g id="XMLID_1703_" transform="translate(16.457754, 0.000000)" fill="#FFCD69">
                    <path d="M149.738748,10.8409244 L2.05003159,158.535142 C-2.32924578,162.914419 0.77230478,170.403749 6.96540413,170.403749 L118.268662,170.403749 C170.543941,170.403749 212.921964,128.027226 212.921964,75.7519469 L212.921964,37.01157 C212.921964,16.5704415 196.351523,0 175.910394,0 C166.094152,0 156.67998,3.89969224 149.738748,10.8409244 Z" id="XMLID_849_"></path>
                </g>
                <g id="XMLID_1389_" transform="translate(0.000000, 88.359685)" fill="#FF7D97">
                    <path d="M0,122.759791 C12.3731964,134.981961 32.2927324,134.92095 44.5904154,122.622767 L144.986237,22.2269456 L122.759291,-1.42133778e-14 L0,122.759791 Z" id="XMLID_843_"></path>
                </g>
                <g id="XMLID_1332_" transform="translate(6.671184, 47.608951)" fill="#80B6FF">
                    <path d="M-1.77667222e-15,122.759291 C39.8890808,145.51133 90.1780077,138.661114 122.649272,106.18985 C151.942472,76.8966501 152.052491,29.2931999 122.759791,-1.42133778e-14 L-1.77667222e-15,122.759291 Z" id="路径"></path>
                </g>
                <g id="XMLID_1752_" transform="translate(20.782189, 57.643732)" fill="#A0C8FF">
                    <path d="M7.10668888e-15,98.4499761 C28.3690359,100.108771 56.9421079,89.8739538 78.0398531,68.7762086 L78.2603922,68.5556695 C96.8761968,49.939865 103.661401,23.9737556 98.6165057,0 L7.10668888e-15,98.4499761 Z" id="XMLID_116_"></path>
                </g>
            </g>
            <g id="XMLID_126_" fill="#000000">
                <path d="M200.493147,42.6120642 C199.557981,43.5417292 199.027887,44.8319582 199.027887,46.1471917 C199.027887,47.4629253 199.557481,48.7526542 200.493147,49.6828193 C201.422812,50.6129844 202.713041,51.1480794 204.028774,51.1480794 C205.344008,51.1480794 206.628736,50.6134845 207.563902,49.6828193 C208.494067,48.7526542 209.029662,47.4629253 209.029662,46.1471917 C209.029662,44.8319582 208.494567,43.5417292 207.563902,42.6120642 C206.634237,41.6818991 205.344008,41.146304 204.028774,41.146304 C202.713041,41.146304 201.422812,41.6818991 200.493147,42.6120642 Z" id="XMLID_270_"></path>
                <path d="M250.999112,170.404749 L183.276091,170.404749 C191.966633,166.178999 200.072072,160.674522 207.317858,153.983334 C209.347219,152.109501 209.473241,148.94594 207.598908,146.91658 C205.725576,144.887219 202.561014,144.761197 200.532154,146.63553 C183.932707,161.963751 162.338374,170.405249 139.72736,170.404749 L128.805421,170.404749 C131.944479,167.907806 134.970516,165.222829 137.856528,162.336817 C152.973712,147.219633 161.315692,127.110564 161.346698,105.712265 C161.374703,85.9757618 154.320951,67.3494554 141.392156,52.7243592 L174.733574,19.3784399 C180.779647,13.3318666 188.818574,10.0022755 197.369092,10.0022755 C215.020226,10.0022755 229.380275,24.3623246 229.380275,42.0129578 L229.380275,80.7533347 C229.380275,91.2882048 227.571454,101.601536 224.00432,111.406276 C223.060153,114.001737 224.39839,116.871246 226.993851,117.815414 C227.558451,118.02045 228.135554,118.117967 228.703154,118.117967 C230.746017,118.117967 232.664358,116.856744 233.402989,114.825383 C237.370193,103.920947 239.38155,92.4579125 239.38155,80.7528347 L239.38155,59.5825767 L250.998112,59.5825767 C253.020971,59.5825767 254.844295,58.3638603 255.618432,56.4955287 C256.39207,54.6266969 255.963994,52.4758151 254.53424,51.0455612 L238.848955,35.3602769 C235.650388,15.345224 218.269802,0 197.368092,0 C186.1461,0 175.595727,4.37027578 167.660319,12.3056844 L8.13550091,171.834003 C7.03280517,172.936698 6.50771196,174.490474 6.7152488,176.035749 C6.92278564,177.581523 7.83944836,178.941764 9.19418884,179.713901 C14.7711788,182.894966 20.5512049,185.50943 26.455753,187.5948 L1.46481678,212.585237 C0.52314962,213.526904 -0.00444403498,214.805631 2.8202036e-05,216.136867 C0.00405747415,217.468603 0.53915246,218.74383 1.48682068,219.679496 C8.59858311,226.704743 17.9132366,230.213366 27.2263898,230.213366 C36.6150564,230.213366 46.0022227,226.646733 53.1274876,219.520968 L80.5903626,192.058093 C92.1329115,190.035234 103.361905,186.12804 113.776754,180.406524 L167.956871,180.406524 L186.190108,198.639761 L186.190108,204.569314 C186.190108,218.63231 197.631639,230.073841 211.694635,230.073841 L219.696056,230.073841 C222.457546,230.073841 224.696943,227.834444 224.696943,225.072953 L224.696943,217.071533 C224.696943,203.008537 213.255412,191.567006 199.192416,191.567006 L193.262363,191.567006 L182.102382,180.406524 L250.999112,180.406524 C253.760602,180.406524 256,178.167627 256,175.405637 C256,172.644147 253.760602,170.404749 250.999112,170.404749 Z M100.396378,127.775182 C83.6304022,144.541658 61.4064572,154.515428 38.0618132,156.052201 L120.839507,73.2750072 C122.251758,93.3920783 114.945461,113.226099 100.396378,127.775182 L100.396378,127.775182 Z M27.9195128,166.194502 C29.1842373,166.23951 30.4474616,166.270015 31.7091855,166.270015 C59.9882054,166.270015 87.3090552,155.007516 107.468634,134.847937 C126.081438,116.235133 134.323901,90.0449841 129.8091,64.305415 L134.307398,59.8071165 C145.354359,72.5273745 151.369927,88.6397347 151.345497,105.698263 C151.317918,124.430088 144.016622,142.032713 130.784773,155.264561 C101.504075,184.544759 56.814142,191.87356 20.0076084,174.106406 L27.9195128,166.194502 Z M46.0552321,212.448212 C36.9536165,221.550828 22.7765999,222.664526 12.434264,215.7603 L37.3861933,190.808371 C45.4926323,192.724211 53.749598,193.681381 61.9870602,193.681381 C62.9467306,193.681381 63.9054008,193.665378 64.8640709,193.639874 L46.0552321,212.448212 Z M214.695668,217.072033 L214.695668,220.072566 L211.695135,220.072566 C203.146618,220.072566 196.192383,213.118331 196.192383,204.569814 L196.192383,201.569281 L199.192916,201.569281 C207.741433,201.569281 214.695668,208.523516 214.695668,217.072033 Z" id="XMLID_822_"></path>
                <path d="M215.000222,129.657516 C214.070057,130.587681 213.534962,131.87791 213.534962,133.193143 C213.534962,134.508377 214.069557,135.798606 215.000222,136.728771 C215.930387,137.658436 217.220616,138.194031 218.53585,138.194031 C219.851083,138.194031 221.141312,137.658936 222.070977,136.728771 C223.001142,135.798606 223.536737,134.508377 223.536737,133.193143 C223.536737,131.87791 223.001642,130.587681 222.070977,129.657516 C221.141312,128.727851 219.855584,128.192256 218.53585,128.192256 C217.221116,128.192256 215.930887,128.727351 215.000222,129.657516 Z" id="XMLID_844_"></path>
            </g>
        </g>
    </g>
</svg>